
<svg width="74px" height="74px" viewBox="0 0 74 74" version="1.1" xmlns="http://www.w3.org/2000/svg" xmlns:xlink="http://www.w3.org/1999/xlink">
    <!-- Generator: Sketch 43.1 (39012) - http://www.bohemiancoding.com/sketch -->
    <desc>Created with Sketch.</desc>
    <defs></defs>
    <g id="Welcome" stroke="none" stroke-width="1" fill="none" fill-rule="evenodd">
        <g id="Artboard-2" transform="translate(-499.000000, -708.000000)" fill-rule="nonzero" fill="#FFFFFF">
            <g id="email" transform="translate(499.000000, 708.000000)">
                <path d="M36.9990133,0 C16.5653933,0 0.000246666667,16.56564 0.000246666667,36.99926 C0.000246666667,57.4323867 16.5653933,73.99926 36.9990133,73.99926 C57.4326333,73.99926 73.9990133,57.4323867 73.9990133,36.99926 C73.9990133,16.56564 57.4326333,0 36.9990133,0 Z M36.9997533,12.99588 L58.8946267,26.64888 L15.10488,26.64888 L36.9997533,12.99588 Z M59.16744,48.4510067 L59.16522,48.4510067 C59.16522,50.6409133 57.3904533,52.4154333 55.2007933,52.4154333 L18.7987133,52.4154333 C16.6088067,52.4154333 14.8342867,50.6406667 14.8342867,48.4510067 L14.8342867,27.51764 C14.8342867,27.28602 14.8579667,27.0608133 14.8964467,26.8395533 L35.8157533,39.8840267 C35.8414067,39.90006 35.8687867,39.9109133 35.89518,39.9257133 C35.9228067,39.9410067 35.9509267,39.9558067 35.9790467,39.9698667 C36.1268,40.0460867 36.2789933,40.1075067 36.43464,40.1477133 C36.4506733,40.1521533 36.4667067,40.1541267 36.48274,40.1578267 C36.6534333,40.1980333 36.8263467,40.2231933 36.9990133,40.2231933 L37.0002467,40.2231933 L37.0027133,40.2231933 C37.17538,40.2231933 37.3482933,40.1987733 37.5189867,40.1578267 C37.53502,40.15388 37.5510533,40.1521533 37.5670867,40.1477133 C37.7224867,40.1075067 37.8741867,40.0460867 38.02268,39.9698667 C38.0508,39.9558067 38.07892,39.9410067 38.1065467,39.9257133 C38.1326933,39.9109133 38.16032,39.90006 38.1859733,39.8840267 L59.10528,26.8395533 C59.14376,27.0608133 59.16744,27.2855267 59.16744,27.51764 L59.16744,48.4510067 Z" id="Shape"></path>
            </g>
        </g>
    </g>
</svg>