<?xml version="1.0" encoding="UTF-8"?>
<svg width="76px" height="74px" viewBox="0 0 76 74" version="1.1" xmlns="http://www.w3.org/2000/svg" xmlns:xlink="http://www.w3.org/1999/xlink">
    <!-- Generator: Sketch 43.1 (39012) - http://www.bohemiancoding.com/sketch -->
    <desc>Created with Sketch.</desc>
    <defs></defs>
    <g id="Welcome" stroke="none" stroke-width="1" fill="none" fill-rule="evenodd">
        <g id="Artboard-2" transform="translate(-498.000000, -708.000000)" fill-rule="nonzero" fill="#FFFFFF">
            <g id="github" transform="translate(498.000000, 708.000000)">
                <path d="M70.8292301,18.900704 C67.4346788,13.1055897 62.8301868,8.51758974 57.0145421,5.135669 C51.1980319,1.75357576 44.8481367,0.062960373 37.9603554,0.062960373 C31.0734396,0.062960373 24.721467,1.75409324 18.9061686,5.135669 C13.0900046,8.51741725 8.48568565,13.1055897 5.0911344,18.900704 C1.69710251,24.6956457 0,31.0237669 0,37.8848951 C0,46.1266667 2.41330296,53.5378788 7.24112073,60.1204289 C12.0684191,66.7034965 18.304574,71.2587226 25.9490661,73.7866247 C26.8389066,73.9511841 27.497631,73.8354406 27.9259317,73.4423263 C28.3544055,73.0486946 28.5683827,72.5557063 28.5683827,71.9654312 C28.5683827,71.8669371 28.5598998,70.9808345 28.5434533,69.3060886 C28.5264875,67.6313427 28.5185239,66.170317 28.5185239,64.9237016 L27.3816401,65.119655 C26.6567836,65.251958 25.7423599,65.3080186 24.638369,65.2921492 C23.5348975,65.2767972 22.3893576,65.1615711 21.2033075,64.9473333 C20.016738,64.734993 18.9130934,64.2425221 17.891508,63.4709557 C16.8704419,62.6993893 16.1455854,61.6894359 15.7171116,60.442648 L15.2228519,59.3093613 C14.8934032,58.5548718 14.3747335,57.7167226 13.6661503,56.7980186 C12.9575672,55.8784522 12.2410205,55.2550583 11.516164,54.9268019 L11.1700957,54.6799627 C10.9394989,54.5159207 10.7255216,54.3180699 10.5276446,54.0884802 C10.3299408,53.8588904 10.1819226,53.6291282 10.0830706,53.399021 C9.98404556,53.1687413 10.0661048,52.9798601 10.3301139,52.8316876 C10.594123,52.6835152 11.0712437,52.6115851 11.7635535,52.6115851 L12.7517267,52.7587226 C13.4107973,52.8903357 14.2260228,53.2834499 15.1984419,53.9404802 C16.1703417,54.596993 16.9692938,55.4504942 17.5954715,56.5006387 C18.3537403,57.8471282 19.2672984,58.8731235 20.3387426,59.5791422 C21.4093212,60.2851608 22.4887289,60.6375664 23.5759271,60.6375664 C24.6631253,60.6375664 25.6021321,60.5554592 26.3932938,60.3921072 C27.18359,60.2278928 27.9250661,59.9810536 28.6173759,59.6529697 C28.9139317,57.452289 29.7213667,55.7616737 31.0389886,54.5799161 C29.1609749,54.3832727 27.4725285,54.0871002 25.9727836,53.693296 C24.4739043,53.2989744 22.9249932,52.659021 21.3270888,51.771711 C19.7283189,50.8856084 18.402041,49.7852681 17.3479089,48.4725874 C16.2936036,47.1592168 15.4283462,45.434965 14.7533485,43.3013846 C14.0780046,41.1669417 13.740246,38.7047599 13.740246,35.9141492 C13.740246,31.9407459 15.0421139,28.5595152 17.6453303,25.7685594 C16.4258679,22.7813054 16.5409932,19.4325035 17.9910524,15.7224988 C18.9466788,15.4266713 20.3638451,15.6486713 22.2418588,16.3871189 C24.1202187,17.1259114 25.4954897,17.7587925 26.3690569,18.2835198 C27.2426241,18.8080746 27.9425513,19.2525921 28.469877,19.6131049 C31.5349795,18.7597762 34.6980683,18.3330256 37.9600091,18.3330256 C41.2219499,18.3330256 44.3857312,18.7597762 47.4510068,19.6131049 L49.3291936,18.4316923 C50.6135763,17.6433939 52.130287,16.9209883 53.8756902,16.264303 C55.6221321,15.6079627 56.9575854,15.4271888 57.8806651,15.7230163 C59.3629248,19.4331935 59.4950159,22.7818228 58.2752073,25.7690769 C60.8782506,28.5600326 62.1806378,31.9421259 62.1806378,35.9146667 C62.1806378,38.7052774 61.8416674,41.1752214 61.1673622,43.3260513 C60.4921913,45.4772261 59.6194897,47.1997529 58.5489112,48.4972541 C57.4771207,49.7945828 56.1423599,50.8862984 54.5444556,51.7722284 C52.946205,52.6588485 51.3967745,53.2988019 49.8978952,53.6931235 C48.3983235,54.0874452 46.709877,54.3837902 44.8318633,54.5807786 C46.5447198,56.0576737 47.4013212,58.3889324 47.4013212,61.5735198 L47.4013212,71.9640513 C47.4013212,72.5543263 47.6073349,73.0471422 48.0197084,73.4409464 C48.4315626,73.8340606 49.0819772,73.9498042 49.9718178,73.7850723 C57.6173485,71.2575152 63.8535034,66.7021166 68.6806287,60.119049 C73.5072346,53.5364988 75.9214032,46.1252867 75.9214032,37.8835152 C75.919672,31.0232494 74.2217039,24.6956457 70.8292301,18.900704 Z" id="Shape"></path>
            </g>
        </g>
    </g>
</svg>