
<svg width="74px" height="74px" viewBox="0 0 74 74" version="1.1" xmlns="http://www.w3.org/2000/svg" xmlns:xlink="http://www.w3.org/1999/xlink">
    <!-- Generator: Sketch 43.1 (39012) - http://www.bohemiancoding.com/sketch -->
    <desc>Created with Sketch.</desc>
    <defs></defs>
    <g id="Welcome" stroke="none" stroke-width="1" fill="none" fill-rule="evenodd">
        <g id="Artboard-2" transform="translate(-499.000000, -708.000000)" fill-rule="nonzero" fill="#FFFFFF">
            <g id="instagram" transform="translate(499.000000, 708.000000)">
                <path d="M36.946257,44.344438 C41.0226235,44.344438 44.3459263,41.0270883 44.3459263,36.9477453 C44.3459263,35.3374391 43.8190793,33.8506592 42.9469542,32.6362324 C41.603048,30.7729207 39.4182704,29.5510525 36.9507218,29.5510525 C34.4816849,29.5510525 32.2983955,30.7714324 30.9515128,32.6347441 C30.0764112,33.8491709 29.5540291,35.3359508 29.5525408,36.946257 C29.548076,41.0256 32.8684022,44.344438 36.946257,44.344438 Z" id="Shape"></path>
                <polygon id="Shape" points="53.0984313 27.8990749 53.0984313 21.6989497 53.0984313 20.7762235 52.1712402 20.7792 45.9740916 20.7985475 45.9979039 27.9228872"></polygon>
                <path d="M36.9477453,0 C16.5748425,0 0,16.5748425 0,36.9477453 C0,57.3191598 16.5748425,73.8954905 36.9477453,73.8954905 C57.3191598,73.8954905 73.8954905,57.3191598 73.8954905,36.9477453 C73.8954905,16.5748425 57.3221363,0 36.9477453,0 Z M57.9606034,32.6362324 L57.9606034,49.8406123 C57.9606034,54.3217877 54.3173229,57.9635799 49.839124,57.9635799 L24.0563665,57.9635799 C19.5766793,57.9635799 15.9348872,54.3217877 15.9348872,49.8406123 L15.9348872,32.6362324 L15.9348872,24.0578547 C15.9348872,19.5781676 19.5766793,15.9363754 24.0563665,15.9363754 L49.8376358,15.9363754 C54.3173229,15.9363754 57.9606034,19.5781676 57.9606034,24.0578547 L57.9606034,32.6362324 Z" id="Shape"></path>
                <path d="M48.4416402,36.9477453 C48.4416402,43.2833028 43.2862793,48.4416402 36.9477453,48.4416402 C30.6092112,48.4416402 25.4553385,43.2833028 25.4553385,36.9477453 C25.4553385,35.4237587 25.7589453,33.9667441 26.3006749,32.6362324 L20.0276246,32.6362324 L20.0276246,49.8406123 C20.0276246,52.0640849 21.8328939,53.8648894 24.0548782,53.8648894 L49.8361475,53.8648894 C52.0551553,53.8648894 53.8634011,52.0640849 53.8634011,49.8406123 L53.8634011,32.6362324 L47.5873743,32.6362324 C48.1335687,33.9667441 48.4416402,35.4237587 48.4416402,36.9477453 Z" id="Shape"></path>
            </g>
        </g>
    </g>
</svg>