
<svg width="74px" height="74px" viewBox="0 0 74 74" version="1.1" xmlns="http://www.w3.org/2000/svg" xmlns:xlink="http://www.w3.org/1999/xlink">
    <!-- Generator: Sketch 43.1 (39012) - http://www.bohemiancoding.com/sketch -->
    <desc>Created with Sketch.</desc>
    <defs></defs>
    <g id="Welcome" stroke="none" stroke-width="1" fill="none" fill-rule="evenodd">
        <g id="Artboard-2" transform="translate(-499.000000, -708.000000)" fill-rule="nonzero" fill="#FFFFFF">
            <g id="linkedin" transform="translate(499.000000, 708.000000)">
                <path d="M36.953807,0 C16.5460657,0 0,16.5460657 0,36.953807 C0,57.3615483 16.5460657,73.907614 36.953807,73.907614 C57.3615483,73.907614 73.907614,57.3615483 73.907614,36.953807 C73.907614,16.5415072 57.3615483,0 36.953807,0 Z M27.7153552,54.8532977 L18.4769035,54.8532977 L18.4769035,22.5186407 L27.7153552,22.5186407 L27.7153552,54.8532977 Z M23.3824805,20.5370513 C20.9897125,20.5370513 19.0543162,18.5969446 19.0543162,16.2041766 C19.0543162,13.8114086 20.994423,11.8713018 23.3824805,11.8713018 C25.7752485,11.8758604 27.7153552,13.8159671 27.7153552,16.2041766 C27.7153552,18.5969446 25.7752485,20.5370513 23.3824805,20.5370513 Z M60.0498604,54.8532977 L50.8114086,54.8532977 L50.8114086,34.8612936 C50.8114086,32.5192772 50.1416099,30.879577 47.2638152,30.879577 C42.4921068,30.879577 41.5729569,34.8612936 41.5729569,34.8612936 L41.5729569,54.8532977 L32.3345051,54.8532977 L32.3345051,22.5186407 L41.5729569,22.5186407 L41.5729569,25.6088624 C42.8940164,24.5973265 46.1921068,22.5231992 50.8114086,22.5231992 C53.8046858,22.5231992 60.0498604,24.3154579 60.0498604,35.1428583 L60.0498604,54.8532977 Z" id="Shape"></path>
            </g>
        </g>
    </g>
</svg>