
<svg width="147px" height="133px" viewBox="0 0 147 133" version="1.1" xmlns="http://www.w3.org/2000/svg" xmlns:xlink="http://www.w3.org/1999/xlink">
    <!-- Generator: Sketch 43.1 (39012) - http://www.bohemiancoding.com/sketch -->
    <desc>Created with Sketch.</desc>
    <defs></defs>
    <g id="Welcome" stroke="none" stroke-width="1" fill="none" fill-rule="evenodd">
        <g id="Desktop-HD" transform="translate(-442.000000, -1718.000000)" fill-rule="nonzero">
            <g id="Group-3" transform="translate(112.000000, 1653.000000)">
                <g id="Group-2" transform="translate(227.767523, 64.955224)">
                    <g id="react" transform="translate(102.651174, 0.000000)">
                        <path d="M0.430499643,66.2730188 C0.430499643,77.3705008 11.1433177,87.7298833 28.0321498,93.569417 C24.659522,110.743803 27.42808,124.586922 36.6741161,129.980593 C46.1776527,135.525003 60.3361807,131.687232 73.7747352,119.804292 C86.8741428,131.207294 100.112863,135.6948 109.350906,130.285536 C118.845878,124.725533 121.733195,109.943906 118.267501,92.2329833 C135.858607,86.3501339 145.698436,77.5166191 145.698436,66.2730188 C145.698436,55.4331209 134.966206,46.0555609 118.304613,40.2535675 C122.035801,21.8108981 118.874426,8.30390819 109.245279,2.68730594 C99.9621313,-2.72773393 86.5692531,1.99194459 73.2774339,13.6929586 C59.4489175,1.27348154 46.1885008,-2.51808594 36.5696315,3.11410996 C27.2950477,8.54474347 24.6486739,22.6396718 28.0321498,40.131706 C11.7131302,45.8869185 0.430499643,55.4770141 0.430499643,66.2730188 Z" id="Shape" fill="#FFFFFF"></path>
                        <path d="M114.776115,46.0151329 C113.402952,45.5386761 112.018138,45.0972935 110.622992,44.6914052 C110.854358,43.7404267 111.068312,42.7852003 111.264745,41.8262161 C114.40842,26.3896562 112.352984,13.9540079 105.333671,9.86038563 C98.6038307,5.93425071 87.5969711,10.027873 76.4804883,19.8131781 C75.3851026,20.7796051 74.3140309,21.7738732 73.2682987,22.7950308 C72.5680002,22.1160215 71.8553268,21.4501931 71.1306453,20.7978883 C59.48032,10.3339706 47.802589,5.92501002 40.7906976,10.0307607 C34.0671382,13.9678689 32.0756491,25.6590648 34.9058703,40.28822 C35.1874575,41.7369332 35.5053914,43.1781747 35.8593642,44.6105492 C34.207022,45.0852893 32.6112044,45.5912166 31.0844722,46.1294864 C17.4261003,50.9461921 8.70305843,58.4958295 8.70305843,66.3261528 C8.70305843,74.41406 18.0667111,82.526224 32.2937537,87.4445772 C33.4473568,87.8415399 34.6105618,88.2093562 35.7822853,88.5476837 C35.4016311,90.0908431 35.0636844,91.6444617 34.7688412,93.2067202 C32.0705105,107.581757 34.1779034,118.995732 40.8837632,122.908584 C47.8100114,126.948494 59.4346437,122.795963 70.7543863,112.787149 C71.6490719,111.995915 72.5471832,111.156746 73.4464364,110.277148 C74.5791083,111.382599 75.7420232,112.455898 76.9338261,113.495793 C87.8984351,123.039686 98.7271568,126.893628 105.427307,122.970381 C112.347275,118.918341 114.595693,106.656533 111.675832,91.7380293 C111.45316,90.5985376 111.193376,89.4347892 110.902189,88.2496717 C111.718654,88.0059487 112.519703,87.7541401 113.30134,87.4919357 C128.091343,82.5354647 137.713638,74.5220605 137.713638,66.3261528 C137.713638,58.46753 128.709687,50.8670687 114.776115,46.0151329 Z" id="Shape" fill="#53C1DE"></path>
                        <path d="M111.567922,82.20049 C110.862793,82.4367049 110.138823,82.6648343 109.40115,82.8860331 C107.76822,77.6575395 105.564336,72.0975364 102.868289,66.3538748 C105.441581,60.7459357 107.559822,55.2575479 109.147075,50.0625518 C110.466551,50.4495054 111.747773,50.8566729 112.982176,51.2869422 C124.920833,55.4435167 132.202786,61.5903031 132.202786,66.3261528 C132.202786,71.3709878 124.337889,77.9203214 111.568493,82.20049 L111.567922,82.20049 Z M106.269465,92.8209217 C107.560393,99.4176139 107.744811,105.381897 106.889521,110.044399 C106.121017,114.233893 104.576014,117.026889 102.665601,118.145589 C98.599834,120.52622 89.9047689,117.431747 80.5285552,109.269914 C79.453448,108.334295 78.3703475,107.335146 77.2843921,106.278243 C80.919659,102.256236 84.5526421,97.5804507 88.0982691,92.3883423 C94.3353753,91.8287035 100.227625,90.9132984 105.571188,89.6640736 C105.833827,90.7383029 106.067918,91.7911632 106.269465,92.8209217 L106.269465,92.8209217 Z M52.6853913,117.734379 C48.7132613,119.153401 45.5496028,119.193829 43.6374764,118.078594 C39.5677132,115.704894 37.8765462,106.539292 40.183773,94.246297 C40.4581395,92.7935233 40.7722852,91.3487262 41.1258479,89.913572 C46.4100311,91.0958018 52.2594593,91.9465222 58.5114104,92.45938 C62.0804465,97.5400227 65.8184852,102.210033 69.5856426,106.299612 C68.7850213,107.083028 67.9654534,107.846385 67.1276837,108.588991 C62.1221262,113.015278 57.1062915,116.1548 52.6859623,117.734379 L52.6853913,117.734379 Z M34.0762735,82.1693027 C27.7854975,79.9942771 22.5903831,77.1677834 19.0293403,74.0837056 C15.8297117,71.3115009 14.2139106,68.5595102 14.2139106,66.3261528 C14.2139106,61.5747094 21.2178087,55.5133993 32.8989654,51.3937876 C34.3651189,50.8789761 35.8458573,50.4076919 37.3392781,49.9805407 C38.9539372,55.2922005 41.0716072,60.8458506 43.6271992,66.4618753 C41.0384918,72.1616437 38.8905612,77.8036578 37.2610573,83.1776921 C36.1914549,82.8680093 35.1295395,82.5317779 34.0762735,82.1693027 L34.0762735,82.1693027 Z M40.3145216,39.217456 C37.8896781,26.6830479 39.4997696,17.2280972 43.5518332,14.855552 C47.8682488,12.3282254 57.4117521,15.9320915 67.4708273,24.9665911 C68.113722,25.5441338 68.7594715,26.1488209 69.4063629,26.7742996 C65.658618,30.8453977 61.9548365,35.4801775 58.4166319,40.5313655 C52.3490992,41.100245 46.5407797,42.0139175 41.2012138,43.2377303 C40.8723004,41.9051948 40.5766424,40.5644851 40.3145216,39.2168784 L40.3145216,39.217456 Z M95.9637374,53.1171749 C94.7025431,50.9135205 93.3945637,48.7376051 92.0407095,46.5909429 C96.1572909,47.1165068 100.100873,47.8153334 103.804084,48.670674 C102.692435,52.2751177 101.306729,56.044161 99.6749412,59.9079213 C98.4826839,57.619576 97.2453693,55.3555425 95.9637374,53.1171749 L95.9637374,53.1171749 Z M73.2700115,30.7581888 C75.8119007,33.543677 78.3577865,36.6543217 80.8619926,40.0289034 C75.7822172,39.786093 70.6939663,39.7849366 65.6140835,40.0254381 C68.1205735,36.6820437 70.6881556,33.5760194 73.2700115,30.7581888 L73.2700115,30.7581888 Z M50.4306923,53.1552927 C49.1651067,55.3758587 47.950927,57.6259999 46.7891449,59.9038785 C45.184192,56.0534017 43.8110466,52.2676096 42.689692,48.6117647 C46.3706353,47.7783706 50.295947,47.0974478 54.3856936,46.5805472 C53.0166667,48.7405131 51.6979694,50.9326991 50.4306923,53.1552927 L50.4306923,53.1552927 Z M54.5033102,86.4696852 C50.2782474,85.992635 46.2935564,85.3463648 42.6137551,84.5360725 C43.7528092,80.8155427 45.1562152,76.9483171 46.7954254,73.0152517 C47.9621053,75.2948187 49.1816204,77.5463174 50.4529595,79.7678804 C51.7502315,82.0340582 53.1007322,84.2686281 54.5033102,86.4696852 L54.5033102,86.4696852 Z M73.4224563,102.288001 C70.8103398,99.4366728 68.2050747,96.2832899 65.6603308,92.8913819 C68.1302797,92.9895642 70.6487597,93.0392329 73.2083484,93.0392329 C75.8381646,93.0392329 78.4377201,92.979746 80.9961669,92.8642374 C78.4839674,96.3179425 75.9472169,99.4759457 73.4224563,102.288001 Z M99.727469,72.8148444 C101.451751,76.790648 102.905401,80.637082 104.059871,84.2946596 C100.318978,85.1580859 96.2806171,85.8534472 92.0252937,86.3697704 C93.3889335,84.1830287 94.7094317,81.9690622 95.9860046,79.729185 C97.2837187,77.4527692 98.5311824,75.1474181 99.727469,72.8148444 L99.727469,72.8148444 Z M91.2116836,76.9442743 C89.2574208,80.3783176 87.1932814,83.7471714 85.0225376,87.0454953 C81.1948591,87.3221382 77.2392867,87.4647912 73.2083484,87.4647912 C69.1939678,87.4647912 65.2886395,87.3383094 61.5277626,87.0916987 C59.3007185,83.8010545 57.1975315,80.4263701 55.2227128,76.9748841 C53.2571247,73.5417103 51.4211349,70.0342692 49.7187121,66.4601427 C51.4168048,62.8849453 53.2472465,59.3756254 55.2061551,55.9396258 L55.2061551,55.9407809 C57.1644492,52.5040496 59.2510787,49.1437946 61.4615319,45.867282 C65.2983457,45.5738903 69.2322218,45.420264 73.2089194,45.420264 C77.2033166,45.420264 81.1423312,45.5750454 84.9780031,45.8707473 C87.166098,49.142218 89.2393818,52.4907763 91.1939841,55.9101711 C93.1596288,59.3385262 95.0144988,62.8306558 96.7556512,66.3810193 C95.0324092,69.9675555 93.1834385,73.4908735 91.2122546,76.9442743 L91.2116836,76.9442743 Z M102.581099,14.6897972 C106.900941,17.2101934 108.581259,27.3732113 105.866942,40.701163 C105.689033,41.5693985 105.495638,42.4343134 105.286852,43.2954846 C99.9347255,42.0462598 94.1224093,41.1164162 88.037177,40.5388735 C84.4921209,35.432819 80.819171,30.7899536 77.1319473,26.7714119 C78.0981525,25.8291787 79.0873508,24.9113728 80.0986265,24.0188436 C89.6232884,15.6340795 98.525039,12.323605 102.581099,14.6897972 L102.581099,14.6897972 Z" id="Shape" fill="#FFFFFF"></path>
                        <path d="M73.2083484,54.6730748 C79.5710646,54.6730748 84.728496,59.890595 84.728496,66.3261528 C84.728496,72.762288 79.5710646,77.9798083 73.2083484,77.9798083 C66.8462032,77.9798083 61.6882008,72.762288 61.6882008,66.3261528 C61.6882008,59.890595 66.8462032,54.6730748 73.2083484,54.6730748" id="Shape" fill="#53C1DE"></path>
                    </g>
                </g>
            </g>
        </g>
    </g>
</svg>
