<svg width="126px" height="131px" viewBox="0 0 126 131" version="1.1" xmlns="http://www.w3.org/2000/svg" xmlns:xlink="http://www.w3.org/1999/xlink">
    <!-- Generator: Sketch 43.1 (39012) - http://www.bohemiancoding.com/sketch -->
    <desc>Created with Sketch.</desc>
    <defs></defs>
    <g id="Welcome" stroke="none" stroke-width="1" fill="none" fill-rule="evenodd">
        <g id="Desktop-HD" transform="translate(-984.000000, -1718.000000)" fill-rule="nonzero">
            <g id="Group-3" transform="translate(112.000000, 1653.000000)">
                <g id="Group-2" transform="translate(227.767523, 64.955224)">
                    <g id="postgresql" transform="translate(644.575389, 0.000000)">
                        <path d="M125.060124,78.4225701 C124.307335,76.1163157 122.33537,74.5100237 119.785205,74.1245731 C118.582703,73.9430095 117.205614,74.0203973 115.57596,74.3602089 C112.735468,74.953019 110.628148,75.1787332 109.090202,75.2223879 C114.895262,65.3083217 119.61552,54.0027642 122.332918,43.3604594 C126.72705,26.1521011 124.378936,18.3126221 121.635055,14.7666754 C114.373459,5.38092948 103.778992,0.338819474 90.9977575,0.184540036 C84.1794973,0.100207224 78.1939642,1.4619341 75.0714825,2.44118687 C72.1642937,1.92229204 69.0383791,1.63258402 65.7584737,1.57900788 C59.6101224,1.47979281 54.1777791,2.83556678 49.5359872,5.6220221 C46.9662048,4.74297656 42.8418023,3.5037803 38.0788775,2.71303617 C26.8767844,0.852753551 17.8482171,2.30228577 11.2442689,7.02145071 C3.24753789,12.7352468 -0.459520236,22.6627069 0.226081994,36.5280134 C0.443826909,40.9301862 2.87825428,54.324221 6.71134944,67.0267268 C8.91430024,74.327964 11.2633951,80.3909971 13.6934088,85.0491448 C17.1395653,91.6543883 20.8270068,95.5441152 24.9666123,96.9410634 C27.2867726,97.7228782 31.5023926,98.2705454 35.9362479,94.5350979 C36.4982652,95.2236505 37.248112,95.9077384 38.243167,96.543211 C39.5069703,97.3493334 41.0522726,98.0081215 42.5956132,98.3985328 C48.1574265,99.8049065 53.3671207,99.4531891 57.8117652,97.4817856 C57.8392285,98.281459 57.8603164,99.0454151 57.8779714,99.7051953 C57.9073964,100.77523 57.9368214,101.824429 57.9755643,102.805666 C58.2389179,109.440178 58.6851969,114.598866 60.0073597,118.20831 C60.0799414,118.406741 60.1775342,118.709346 60.2805217,119.030307 C60.9401318,121.073146 62.0430785,124.493089 64.8492416,127.1714 C67.7549592,129.94595 71.269774,130.796719 74.4888678,130.796719 C76.1033188,130.796719 77.6437169,130.582414 78.9948143,130.28973 C83.8107041,129.245491 89.280319,127.655074 93.2369991,121.95616 C96.977896,116.568781 98.7963603,108.454477 99.1254297,95.6691262 C99.168096,95.3074872 99.2073293,94.9622188 99.2450914,94.6333208 L99.323558,93.9576662 L100.204836,94.0360461 L100.431899,94.0514244 C105.337045,94.2776348 111.334838,93.2254589 115.018356,91.494652 C117.928978,90.1284604 127.256209,85.1473677 125.060124,78.4225701" id="Shape" fill="#000000"></path>
                        <path d="M116.673022,79.7302247 C102.088036,82.7736471 101.085134,77.7786642 101.085134,77.7786642 C116.484211,54.6650248 122.921908,25.3256395 117.366961,18.1449486 C102.21113,-1.44258716 75.9763009,7.8211242 75.538359,8.06122467 L75.3976095,8.08702059 C72.5159223,7.48180865 69.291434,7.12165793 65.6667658,7.06163281 C59.0677218,6.95249623 54.0615504,8.8117867 50.2627844,11.7257334 C50.2627844,11.7257334 3.4623403,-7.77697349 5.63929903,36.2536837 C6.10225218,45.6205787 18.9119305,107.129459 34.1903653,88.5509408 C39.7747377,81.7571887 45.1707901,76.013132 45.1707901,76.013132 C47.8504257,77.8138856 51.0587303,78.7326172 54.4220065,78.402727 L54.6833985,78.178501 C54.6019893,79.0218291 54.639261,79.8468024 54.7878572,80.8235748 C50.8517746,85.2718826 52.008667,86.0527052 44.1404251,87.6912422 C36.1785137,89.3511103 40.8556156,92.3057352 43.909439,93.0786206 C47.6115929,94.0147148 56.1762262,95.3412204 61.9631406,87.1465514 L61.7326449,88.0816535 C63.2745143,89.3312673 64.3573538,96.2088562 64.1758997,102.444027 C63.9944456,108.678703 63.8733128,112.959337 65.0880744,116.302885 C66.3038168,119.646433 67.5146551,127.169416 77.8585194,124.927651 C86.5011289,123.053975 90.9801025,118.198885 91.6034219,110.099959 C92.0452871,104.342508 93.0462271,105.193773 93.1090004,100.045999 L93.9118122,97.6092769 C94.8372281,89.8045232 94.0589371,87.2864447 99.3833888,88.4576786 L100.678088,88.5727681 C104.596516,88.7528434 109.726272,87.9348152 112.736939,86.5195122 C119.219264,83.4765859 123.064129,78.3952859 116.672041,79.7302247 L116.673022,79.7302247" id="Shape" fill="#336791"></path>
                        <path d="M53.0022508,40.4425441 C51.6879347,40.257508 50.4976939,40.428654 49.8954624,40.8900041 C49.5570751,41.1494515 49.452126,41.4500731 49.4236818,41.6569366 C49.3481577,42.2050999 49.72774,42.8113039 49.9611783,43.1238314 C50.6212788,44.0088299 51.5854376,44.6170183 52.5397881,44.7509586 C52.6780855,44.7708016 52.8158925,44.779731 52.9527187,44.779731 C54.5441202,44.779731 55.9913392,43.5261485 56.1188475,42.600968 C56.2782328,41.4421359 54.6152306,40.6697466 53.0022508,40.4430402 M96.543387,40.4792537 C96.4178404,39.5709397 94.8200635,39.3119883 93.3036958,39.5253007 C91.7892897,39.7386131 90.3209828,40.4301422 90.4435869,41.3404405 C90.5416702,42.04834 91.8054734,43.2567796 93.3012437,43.2567796 C93.4277711,43.2567796 93.5552794,43.2483463 93.6837685,43.2299916 C94.6822565,43.0900983 95.4149387,42.4486729 95.7631344,42.0790967 C96.2927842,41.5155551 96.5997849,40.8875237 96.543387,40.4792537" id="Shape" fill="#FFFFFF"></path>
                        <path d="M121.526183,79.3844602 C120.970051,77.6834178 119.180031,77.1362466 116.206145,77.757333 C107.376196,79.600749 104.213991,78.3238511 103.175779,77.5504696 C110.039158,66.9741428 115.685323,54.1892885 118.7313,42.2611564 C120.174105,36.610858 120.971032,31.3633728 121.036257,27.086211 C121.108348,22.3918498 120.317797,18.9421417 118.687652,16.8348136 C112.115091,8.33952295 102.468599,3.78257465 90.7917826,3.65756366 C82.7641553,3.56628579 75.9816955,5.6443455 74.6668889,6.22872228 C71.8979975,5.53223246 68.8794841,5.1046155 65.5932033,5.05004721 C59.5669657,4.95132821 54.3577619,6.41078193 50.0450395,9.38574589 C48.1716485,8.68032673 43.3302571,6.99912732 37.409459,6.03426073 C27.1734864,4.36744751 19.0394388,5.63045539 13.2348694,9.79004732 C6.30871752,14.7537774 3.11120211,23.6265814 3.73059811,36.1614137 C3.93902512,40.3785504 6.31460251,53.3519133 10.063346,65.7761208 C14.9979166,82.1287491 20.362092,91.3860115 26.0058048,93.2904448 C26.6663958,93.5131826 27.4280125,93.6689503 28.268096,93.6689503 C30.3268643,93.6689503 32.8510379,92.7303757 35.4772181,89.5366425 C38.6804044,85.6496701 41.993895,81.8570813 45.4135463,78.1636187 C47.6321904,79.3680897 50.0695603,80.0407679 52.5623472,80.1082341 C52.5672514,80.1742122 52.5736268,80.2401902 52.5795118,80.3056721 C52.1504099,80.8232683 51.7302231,81.3483605 51.3191415,81.8807114 C49.5918946,84.0986644 49.2324194,84.5605105 43.6725678,85.7183504 C42.0909747,86.0487366 37.8905576,86.9243097 37.8287651,89.9027461 C37.7620685,93.1570005 42.7942319,94.5236882 43.3675288,94.6685422 C45.3654855,95.174539 47.2903701,95.4240649 49.125999,95.4240649 C53.5902602,95.4240649 57.5189865,93.9398075 60.6586328,91.0680272 C60.5620207,102.669246 61.0401768,114.100806 62.4172663,117.583751 C63.5452242,120.435193 66.3003839,127.403563 75.0033146,127.403067 C76.2803591,127.403067 77.6858928,127.252756 79.2321759,126.917409 C88.3151794,124.94799 92.2595991,120.887117 93.7852848,111.934445 C94.6018282,107.149798 96.002948,95.7246866 96.6620678,89.5961716 C98.0528889,90.0351983 99.8433995,90.2361088 101.779073,90.2356127 C105.816182,90.2356127 110.474648,89.3679769 113.396059,87.9963285 C116.677926,86.4545263 122.600195,82.6714556 121.526183,79.3844602 L121.526183,79.3844602 Z M99.895874,37.9720888 C99.8659586,39.7812756 99.6197695,41.4237812 99.358868,43.1382176 C99.0778593,44.9821297 98.7875328,46.8885474 98.7144607,49.2027389 C98.6423695,51.4549211 98.9204356,53.7963968 99.1891839,56.0609809 C99.7325653,60.6347957 100.290169,65.3435431 98.131846,69.9897849 C97.7733216,69.3471878 97.4539556,68.6830278 97.1755338,68.0010188 C96.907276,67.3432229 96.3246613,66.2865823 95.5179262,64.8241522 C92.3797511,59.1311913 85.0308603,45.7996619 88.7928451,40.3596995 C89.9134467,38.7405095 92.7573718,37.0756806 99.895874,37.9720888 L99.895874,37.9720888 Z M91.2429658,7.32108023 C101.705511,7.55473172 109.981779,11.5139092 115.841275,19.0879879 C120.335452,24.8975265 115.386659,51.3318944 101.060123,74.136975 C100.916047,73.9516608 100.771209,73.7669538 100.625614,73.5828588 L100.44416,73.353672 C104.146314,67.1691004 103.422459,61.0500108 102.778052,55.6249306 C102.513227,53.3985444 102.263114,51.2956809 102.326868,49.3203088 C102.392584,47.2268708 102.666237,45.4310779 102.931062,43.6948142 C103.256208,41.5552411 103.587239,39.3412568 103.496021,36.7314043 C103.564189,36.4575707 103.591653,36.1341295 103.555852,35.7501672 C103.322904,33.247467 100.498105,25.7572251 94.740616,18.9778591 C91.5911614,15.2696958 86.9984112,11.1200254 80.7274557,8.32116816 C83.4247463,7.75564225 87.1131686,7.22831413 91.2429658,7.32108023 L91.2429658,7.32108023 Z M32.698028,87.1991354 C29.8045708,90.718294 27.8066141,90.0436315 27.149456,89.8223819 C22.8681202,88.3778105 17.9002013,79.2242278 13.5202918,64.7090627 C9.73035325,52.1494266 7.51563246,39.5198439 7.34006336,35.9783619 C6.78687358,24.7779723 9.47092294,16.9722264 15.3181586,12.7774132 C24.8341998,5.95141615 40.4794662,10.0370928 46.7661149,12.1091996 C46.6758783,12.1994854 46.5817183,12.2838182 46.4924625,12.3755921 C36.1760616,22.9142172 36.4207794,40.9197686 36.4462811,42.0205598 C36.4453002,42.4452003 36.4806102,43.0464437 36.528671,43.8734013 C36.7062018,46.9019414 37.0367425,52.5383497 36.1539929,58.9213514 C35.3340165,64.8529245 37.1416916,70.6584945 41.1125938,74.8498353 C41.520121,75.2791583 41.9484542,75.6877653 42.3960137,76.0741493 C40.6285528,77.9890002 36.7871205,82.2234995 32.698028,87.1991354 Z M43.7220999,72.320347 C40.521642,68.9420738 39.0680475,64.2432479 39.7335427,59.4273483 C40.665334,52.6846919 40.321552,46.8121518 40.136665,43.6571124 C40.110673,43.2156054 40.0876234,42.8286666 40.0743821,42.5235802 C41.581432,41.1717749 48.565453,37.3867198 53.5461227,38.5410872 C55.8187126,39.0674232 57.2036487,40.633037 57.7793977,43.3257341 C60.7591682,57.2669401 58.1736925,63.0774708 56.0962883,67.7470282 C55.6681548,68.7089183 55.2635612,69.6182245 54.918308,70.5587834 L54.6505406,71.2860299 C53.972785,73.1244852 53.3421094,74.8339609 52.9512475,76.4571195 C49.548738,76.447198 46.2389172,74.9768306 43.7220999,72.3198509 L43.7220999,72.320347 Z M44.2443934,91.1216033 C43.2508096,90.8705892 42.3572708,90.4345389 41.8330156,90.0729 C42.2709575,89.8645483 43.0502293,89.5807932 44.4018171,89.2990224 C50.9425016,87.9372955 51.9527596,86.9759015 54.1586528,84.1428151 C54.6642722,83.4929564 55.2375691,82.7567805 56.0315534,81.8598763 L56.0325342,81.8588841 C57.2149283,80.5194806 57.7558577,80.7466831 58.7366906,81.1584257 C59.5316557,81.4907962 60.3060233,82.4988213 60.6198899,83.6080458 C60.7684861,84.1319014 60.9352277,85.1260365 60.3893941,85.899914 C55.781441,92.4262815 49.0666586,92.3424448 44.2443934,91.1216033 L44.2443934,91.1216033 Z M78.4749729,123.34269 C70.4733377,125.07697 67.6402017,120.947142 65.7731862,116.225993 C64.5682329,113.178106 63.9758098,99.4338421 64.3960967,84.2554242 C64.4014913,84.0535215 64.3730472,83.8585639 64.3181205,83.675016 C64.2689875,83.3125687 64.194253,82.9541466 64.0944906,82.6025011 C63.4697,80.3939736 61.9469569,78.5465889 60.1201555,77.7806485 C59.3943391,77.4765543 58.062368,76.9184696 56.4616486,77.3326925 C56.8029785,75.9099483 57.3949112,74.3031602 58.0368663,72.5634239 L58.306105,71.8317128 C58.6091823,71.0067394 58.9897455,70.1520016 59.391887,69.2471601 C61.5659033,64.3618099 64.5432217,57.6702493 61.3118675,42.5533448 C60.1015197,36.8911405 56.0595071,34.1260165 49.9322437,34.7684341 C46.2590243,35.1528925 42.8982002,36.6520322 41.2219567,37.5117308 C40.8615006,37.6962709 40.5319407,37.874858 40.2239592,38.0484844 C40.6918165,32.3436177 42.4592775,21.681966 49.0710724,14.9363331 C53.2342178,10.689928 58.778376,8.59252139 65.5333725,8.70562657 C78.8432756,8.92588403 87.3784839,15.8352217 92.1953545,21.5931685 C96.3462396,26.5544182 98.5938183,31.5523775 99.49079,34.248051 C92.7451114,33.5540416 88.1572653,34.9008862 85.8317104,38.2642772 C80.7720836,45.5803966 88.599621,59.7800579 92.3616057,66.6045667 C93.0516217,67.8551726 93.6469873,68.9361209 93.8343264,69.3954867 C95.0593868,72.3987269 96.6453936,74.4038635 97.8032669,75.8672859 C98.1583284,76.315738 98.5026008,76.7507961 98.7644832,77.1307898 C96.7214082,77.7265763 93.0516217,79.1031855 93.3860857,85.9842468 C93.1163567,89.4369314 91.1983379,105.602043 90.2238803,111.313359 C88.9375179,118.858665 86.1926569,121.668932 78.4749729,123.343186 L78.4749729,123.34269 Z M111.874296,84.6805608 C109.785122,85.6613018 106.288943,86.3969815 102.967843,86.5552296 C99.2995276,86.728856 97.4320216,86.1395184 96.9926085,85.7768873 C96.7866336,81.4888119 98.3643034,81.0408558 100.034171,80.5666078 C100.296544,80.4921965 100.552542,80.4192734 100.799712,80.3319641 C100.953212,80.4584634 101.121425,80.5839704 101.305821,80.7069971 C104.254205,82.6754242 109.512941,82.8877444 116.937356,81.3375089 L117.018765,81.3211384 C116.017335,82.2681463 114.30382,83.5390914 111.874296,84.6805608 Z" id="Shape" fill="#FFFFFF"></path>
                    </g>
                </g>
            </g>
        </g>
    </g>
</svg>