
<svg width="103px" height="134px" viewBox="0 0 103 134" version="1.1" xmlns="http://www.w3.org/2000/svg" xmlns:xlink="http://www.w3.org/1999/xlink">
    <!-- Generator: Sketch 43.1 (39012) - http://www.bohemiancoding.com/sketch -->
    <desc>Created with Sketch.</desc>
    <defs>
        <linearGradient x1="35.204%" y1="52.8731398%" x2="101.159%" y2="50%" id="linearGradient-1">
            <stop stop-color="#FFFFFF" offset="0%"></stop>
            <stop stop-color="#C0815E" offset="100%"></stop>
        </linearGradient>
        <radialGradient cx="0%" cy="0%" fx="0%" fy="0%" r="50.521%" gradientTransform="translate(0.000000,0.000000),scale(1.000000,0.620095),translate(-0.000000,-0.000000)" id="radialGradient-2">
            <stop stop-color="#FFFFFF" offset="0%"></stop>
            <stop stop-color="#A94436" offset="100%"></stop>
        </radialGradient>
    </defs>
    <g id="Welcome" stroke="none" stroke-width="1" fill="none" fill-rule="evenodd">
        <g id="Desktop-HD" transform="translate(-340.000000, -1717.000000)" fill-rule="nonzero">
            <g id="Group-3" transform="translate(112.000000, 1653.000000)">
                <g id="Group-2" transform="translate(227.767523, 64.955224)">
                    <g id="rails" transform="translate(0.779062, 0.000000)">
                        <path d="M1.6299538,131.008532 C1.6299538,131.008532 1.82772895,99.6176536 1.82772895,67.7067072 C1.82772895,5.89867058 -3.32119004,1.29493812 24.0951422,1.29493812 L100.407701,1.29493812 L100.407701,90.448429 C100.407701,119.796871 105.831197,131.293925 75.3399982,131.293925 C44.8491974,131.293925 1.63035173,131.008934 1.63035173,131.008934 L1.6299538,131.008532 Z" id="Shape" fill="#A62C39"></path>
                        <path d="M64.5475233,12.9546141 C64.5475233,12.9546141 69.4373847,13.9440322 73.6754238,21.1984229 C77.9134628,28.4532161 100.407303,84.8423976 100.407303,84.8423976 L100.407303,39.0051303 L79.5430187,4.71080536 L85.4114095,11.9655986 L96.4951749,2.73156671 L82.1515019,1.74295371 L64.5475233,12.9546141 Z" id="Shape" fill="url(#linearGradient-1)"></path>
                        <path d="M21.1897973,2.07262555 C21.1897973,2.07262555 53.46336,23.8366027 69.1114735,28.1235442 C84.7591892,32.4104858 100.733214,37.0395776 100.733214,37.0395776 L63.8953031,129.35977 L79.8693278,130.019114 L100.733214,78.2521809 L100.080994,1.74295371 L21.1897973,2.07302808 L21.1897973,2.07262555 Z" id="Shape" fill="url(#radialGradient-2)" opacity="0.668"></path>
                        <path d="M51.1815838,99.351179 L83.9792308,131.239584 L22.1675308,130.678457 C22.1675308,130.678457 20.2116658,110.563242 20.8638861,100.010925 C21.5157085,89.4586084 24.7756161,89.4586084 24.7756161,89.4586084 L51.1815838,99.351179 Z" id="Shape" fill-opacity="0.44" fill="#FFFFFF"></path>
                        <polygon id="Shape" fill-opacity="0.362" fill="#000000" points="82.1515019 131.338203 51.8334062 99.6812533 24.1237937 89.1289366 2.60808525 40.6542946 25.4278363 2.07302808 10.8091882 2.07302808 3.91212787 7.34898518 1.6299538 11.9655986 1.6299538 131.338203"></polygon>
                        <path d="M100.733214,80.8851279 C100.733214,80.8851279 70.089605,90.7776984 51.8334062,100.010925 C33.5776053,109.244555 23.7978825,131.667875 23.7978825,131.667875 C23.7978825,131.667875 62.9175695,129.689442 77.5871537,130.348785 C92.2571358,131.008532 99.1032601,131.008532 100.407303,110.23357 C101.711345,89.459011 100.733214,80.8851279 100.733214,80.8851279 L100.733214,80.8851279 Z" id="Shape" fill="#83222D" opacity="0.5"></path>
                        <g id="Group" transform="translate(10.744324, 100.229901)" fill="#FFFFFF">
                            <path d="M0.331482303,0.348993271 L0.331482303,19.825394 L5.24203647,19.825394 L5.24203647,14.7523119 L9.71167539,19.2731232 L17.2466303,19.2731232 L11.2703983,13.2279318 C11.2703983,13.2279318 15.5701177,13.1578916 15.895631,6.86755963 C15.895631,1.09649097 11.5911363,0.348993271 6.61969761,0.348993271 L0.331482303,0.348993271 Z M5.47602397,5.6321959 L9.71167539,5.6321959 L9.71167539,9.1015996 L5.47562604,9.1015996 L5.47562604,5.63179337 L5.47602397,5.6321959 Z M26.7306851,0.427889097 C24.0422164,0.412592967 20.3127421,0.664979104 20.3127421,5.78958502 L20.3127421,19.3258546 L25.3538199,19.3258546 L25.3538199,16.0142425 L30.2385081,16.0142425 L30.2385081,19.2469588 L35.3054519,19.2469588 L35.3054519,5.05376069 C35.3054519,0.601781938 30.4159884,0.427889097 27.7963629,0.427889097 C27.46886,0.427889097 27.1150932,0.430706805 26.7306851,0.427889097 L26.7306851,0.427889097 Z M25.4318157,5.3166126 L30.1605122,5.3166126 L30.1605122,10.6521441 L25.4322137,10.6521441 L25.4322137,5.3166126 L25.4318157,5.3166126 Z M40.3556822,0.440770048 L45.5714548,0.440770048 L45.5714548,19.0722609 L40.3556822,19.0722609 L40.3556822,0.440770048 Z M51.0323571,0.688325828 L51.0323571,19.3194141 L63.5833197,19.3194141 L63.5833197,14.3731289 L56.1665524,14.3731289 L56.1665524,0.605404705 L51.0323571,0.687923299 L51.0323571,0.688325828 Z M80.2087688,0.523288642 L80.2087688,5.55209249 L71.814666,5.55209249 L71.814666,7.36548889 L75.4004847,7.36548889 C77.2747724,7.36548889 81.1869003,7.28337283 81.1869003,13.2190761 C81.1869003,19.1543769 78.4976357,19.4844513 73.0371313,19.4844513 L66.4353409,19.4844513 L66.4353409,14.949954 L74.0148648,14.949954 C76.2970389,14.949954 76.4227873,14.1988335 76.4227873,13.5439176 C76.4227873,12.8890018 75.2560333,12.5846893 72.8831293,12.5846893 C70.5106233,12.5846893 66.1094297,11.4052772 66.1094297,6.78826127 C66.1094297,2.17205039 68.3916038,0.440367518 72.955554,0.440367518 C77.5195043,0.440367518 80.2087688,0.523288642 80.2087688,0.523288642 Z" id="Shape"></path>
                        </g>
                        <g id="Group" transform="translate(5.969069, 6.843005)" fill="#FFFFFF">
                            <path d="M9.67864654,88.2216346 L53.0363726,88.2216346 C53.0363726,88.2216346 43.4194064,66.1279856 45.8643371,45.8473305 C48.3096657,25.5674805 64.1205359,16.3342537 73.0852818,15.3448356 C82.0504256,14.3558201 86.940287,19.9618516 86.940287,19.9618516 L88.896152,16.9935974 C88.896152,16.9935974 76.0192782,3.80350336 59.7193423,5.28722793 C43.4198044,6.77135502 32.1724865,17.6529411 25.1636055,30.8438401 C18.1547246,44.0339341 14.0798401,53.2671609 11.3086003,67.1170012 C8.53775847,80.9668414 9.67864654,88.2216346 9.67864654,88.2216346 L9.67864654,88.2216346 Z M1.03981183,66.1275831 L9.51588993,66.7877318 L8.04869275,75.3612124 L0.0620783184,74.3717944 L1.03981183,66.1279856 L1.03981183,66.1275831 Z M14.4057513,47.9912038 L16.6879254,41.5607915 L9.18997875,38.5929398 L6.74465012,45.5180612 L14.4057513,47.9912038 Z M25.0008489,25.8971523 L29.4016446,20.6215978 L23.6968063,16.8293652 L19.1324582,21.9406877 L25.0008489,25.8975549 L25.0008489,25.8971523 Z M36.5736801,5.45226512 L40.48541,10.2335132 L45.8643371,7.10102687 L41.9526072,2.64904812 L36.5736801,5.45226512 Z M55.6444578,0.0112708323 L56.6225893,4.7925189 L63.305559,4.62748171 L62.6533387,0.340942676 L55.6444578,0.0108683026 L55.6444578,0.0112708323 Z" id="Shape"></path>
                            <path d="M78.3014523,5.12259327 L78.1382977,8.09044493 L82.702248,10.5635876 L83.6803794,9.07946046 L78.3014523,5.12259327 Z M77.3233209,17.8179782 L77.3233209,20.2915234 L81.7245145,20.7858299 L81.7245145,18.8073963 L77.3233209,17.8179782 L77.3233209,17.8179782 Z M63.305559,19.961449 L65.4241806,23.9187187 L68.5213316,21.4455761 L67.8695092,18.8073963 L63.3051611,19.961449 L63.305559,19.961449 Z M56.6225893,25.0727715 L59.8824969,30.0190567 L57.926234,33.4816174 L53.1995271,28.2056603 L56.6225893,25.0727715 Z M50.1023762,38.757977 L47.9833566,43.0449186 L53.5254383,47.8261667 L54.8294809,42.3851724 L50.1023762,38.757977 L50.1023762,38.757977 Z M47.8202021,53.76187 L47.4946888,59.5325361 L54.3404152,62.5003878 L54.0141061,57.0593935 L47.8206,53.76187 L47.8202021,53.76187 Z M49.776465,74.2067572 L51.4064188,80.1424605 L60.0456514,80.6375721 L56.9485005,74.2067572 L49.776465,74.2067572 L49.776465,74.2067572 Z" id="Shape"></path>
                        </g>
                        <path d="M2.8770913,131.016582 L2.87947892,130.655916 L2.88584593,129.60491 L2.90813046,125.611816 C2.93121086,121.309578 2.95429126,116.508606 2.9757799,111.329658 C3.03785822,96.5326658 3.07486645,81.6700608 3.07486645,67.7071097 C3.07486645,60.5122934 3.01358401,54.229207 2.88266243,45.4379578 C2.48233686,18.5771493 2.67493882,13.4609965 4.89145314,8.63345753 C7.11831385,3.78377941 11.298254,2.55606375 24.0951422,2.55606375 L100.407701,2.55606375 L99.1605632,1.29453559 L99.1605632,90.4480265 C99.1605632,93.184021 99.1896126,95.5448579 99.2600477,99.521449 C99.5330331,114.848573 99.1975714,119.206763 96.7518448,123.245746 C93.8914669,127.970237 87.7333773,130.031995 75.3399982,130.031995 C68.3430554,130.031995 60.1113112,130.015893 50.8974562,129.985301 C43.48626,129.961149 35.6301692,129.928544 27.5464579,129.889499 C19.0793712,129.848568 10.6123113,129.802143 2.14528343,129.750224 L1.63831049,129.747003 L2.87748923,131.016582 L2.8770913,131.016582 Z M0.374857538,132.262009 L1.62199504,132.27006 C2.27885698,132.274242 2.93571989,132.278268 3.59258371,132.282136 C11.5729371,132.330489 19.5533186,132.373962 27.5337239,132.412555 C35.6190269,132.451601 43.4763115,132.484206 50.8890995,132.50876 C60.1053421,132.53895 68.3394739,132.555051 75.3396002,132.555051 C88.5145295,132.555051 95.4450166,130.23487 98.8788231,124.563628 C101.692244,119.917228 102.037654,115.424996 101.753925,99.4763657 C101.68349,95.5138631 101.65444,93.1651022 101.65444,90.4480265 L101.65444,0.0330074374 L24.0951422,0.0330074374 C10.3742421,0.0330074374 5.42230235,1.4869448 2.62917596,7.57037652 C1.23281173,10.6114886 0.558306928,14.821547 0.313575096,21.3260248 C0.124952513,26.3383249 0.144451472,29.1008864 0.388785366,45.4761981 C0.51930901,54.2557739 0.580591452,60.527187 0.580591452,67.7071097 C0.580591452,81.6660355 0.543185286,96.5250178 0.481504906,111.31879 C0.456081336,117.409088 0.425970689,123.499364 0.391172994,129.589614 L0.385203925,130.640217 L0.374857538,132.262412 L0.374857538,132.262009 Z" id="Shape" fill="#5E000E"></path>
                    </g>
                </g>
            </g>
        </g>
    </g>
</svg>