
<svg width="641px" height="570px" viewBox="0 0 641 570" version="1.1" xmlns="http://www.w3.org/2000/svg" xmlns:xlink="http://www.w3.org/1999/xlink">
    <!-- Generator: Sketch 43.1 (39012) - http://www.bohemiancoding.com/sketch -->
    <desc>Created with Sketch.</desc>
    <defs></defs>
    <g id="Welcome" stroke="none" stroke-width="1" fill="none" fill-rule="evenodd">
        <g id="Artboard" transform="translate(-225.000000, -261.000000)" fill-rule="nonzero">
            <g id="react" transform="translate(225.000000, 261.000000)">
                <path d="M0.168652344,283.570136 C0.168652344,331.367254 47.3592937,375.98536 121.755668,401.136371 C106.899029,475.106858 119.094702,534.729503 159.824077,557.960171 C201.687756,581.840075 264.056968,565.310704 323.254651,514.130599 C380.958371,563.2436 439.275772,582.571397 479.969935,559.273566 C521.795888,535.326501 534.514701,471.661684 519.248102,395.380319 C596.738037,370.042747 640.083105,331.996589 640.083105,283.570136 C640.083105,236.882438 592.806951,196.493064 519.411583,171.503741 C535.847698,92.0707258 521.921643,33.8957996 479.504643,9.7049603 C438.611788,-13.617745 379.615312,6.71002246 321.064008,57.1065678 C260.148518,3.61558502 201.735543,-12.7147862 159.363815,11.5432153 C118.508686,34.9330829 106.851242,95.6402738 121.755668,170.97888 C49.8693539,195.766717 0.168652344,237.071487 0.168652344,283.570136 Z" id="Shape" fill="#FFFFFF"></path>
                <path d="M526.309082,184.512061 C519.497958,182.17703 512.629046,180.013891 505.708887,178.024704 C506.856498,173.364127 507.917747,168.68273 508.89209,163.982917 C524.485254,88.3310565 514.289941,27.3861348 479.472949,7.32401304 C446.091797,-11.9172826 391.495898,8.14483913 336.35625,56.1008957 C330.92295,60.8371842 325.610252,65.7099172 320.423242,70.7144304 C316.949643,67.3867257 313.414661,64.1236181 309.820117,60.926787 C252.03252,9.64496957 194.108984,-11.9625696 159.328809,8.1589913 C125.978809,27.4540652 116.100684,84.7505565 130.139063,156.44547 C131.535783,163.545358 133.11279,170.608628 134.868555,177.628443 C126.672656,179.955061 118.757129,182.434522 111.184277,185.072487 C43.4364258,208.678313 0.168652344,245.677757 0.168652344,284.052791 C0.168652344,323.6902 46.6139648,363.446487 117.18252,387.55047 C122.904587,389.495913 128.674282,391.298517 134.48623,392.9566 C132.598121,400.519353 130.921848,408.133364 129.459375,415.789717 C116.075195,486.239239 126.528223,542.177122 159.79043,561.353317 C194.145801,581.152209 251.805957,560.801383 307.953809,511.749948 C312.391602,507.872252 316.846387,503.75963 321.306836,499.448878 C326.925082,504.866499 332.693337,510.126546 338.604883,515.222891 C392.991211,561.995826 446.703516,580.883317 479.937402,561.656174 C514.261621,541.797843 525.41416,481.704883 510.931152,408.591922 C509.82666,403.007474 508.538086,397.304148 507.09375,391.496096 C511.143555,390.301652 515.116895,389.067583 518.993945,387.782565 C592.354883,363.491774 640.083105,324.219491 640.083105,284.052791 C640.083105,245.539065 595.421973,208.290543 526.309082,184.512061 Z" id="Shape" fill="#53C1DE"></path>
                <path d="M510.395898,361.850122 C506.89834,363.00777 503.307324,364.125791 499.64834,365.209848 C491.54873,339.585922 480.61709,312.337326 467.244238,284.188652 C480.008203,256.70513 490.515039,229.807509 498.388086,204.347748 C504.93291,206.244139 511.287988,208.239596 517.41084,210.34827 C576.628613,230.718909 612.74834,260.843226 612.74834,284.052791 C612.74834,308.776639 573.737109,340.87377 510.39873,361.850122 L510.395898,361.850122 Z M484.114648,413.898987 C490.517871,446.228213 491.432617,475.458113 487.190234,498.308213 C483.37832,518.840187 475.714844,532.52817 466.238867,538.010722 C446.071973,549.677774 402.942969,534.512304 356.435352,494.5126 C351.102637,489.927296 345.730273,485.030643 340.34375,479.850948 C358.375293,460.1398 376.395508,437.2246 393.982422,411.778991 C424.919531,409.0363 454.146094,404.550061 480.651074,398.42783 C481.953809,403.692439 483.114941,408.852322 484.114648,413.898987 L484.114648,413.898987 Z M218.328516,535.995452 C198.626074,542.94983 182.933789,543.147961 173.449316,537.682391 C153.262598,526.049304 144.874121,481.130304 156.318359,420.8845 C157.679264,413.764712 159.23748,406.684016 160.991211,399.650578 C187.20166,405.444478 216.21582,409.613709 247.226563,412.127135 C264.92959,437.02647 283.470898,459.913365 302.156641,479.955674 C298.185423,483.795055 294.120226,487.536137 289.964746,491.175517 C265.136328,512.86797 240.256934,528.254213 218.331348,535.995452 L218.328516,535.995452 Z M126.024121,361.697278 C94.8208008,351.037861 69.0521484,337.185713 51.3887695,322.071191 C35.5180664,308.485104 27.503418,294.998083 27.503418,284.052791 C27.503418,260.766804 62.2439453,231.061391 120.184473,210.8719 C127.456843,208.348899 134.801558,206.039219 142.20918,203.945826 C150.218164,229.977335 160.722168,257.194796 173.39834,284.717943 C160.55791,312.651504 149.903809,340.302022 141.821191,366.639217 C136.515781,365.121516 131.2485,363.473706 126.024121,361.697278 L126.024121,361.697278 Z M156.966895,151.197843 C144.939258,89.7689174 152.925586,43.4318696 173.024512,31.8044435 C194.434668,19.4184609 241.77207,37.0803739 291.666797,81.3568652 C294.855664,84.1873 298.058691,87.1507652 301.267383,90.2161261 C282.67793,110.167861 264.306543,132.8821 246.756445,157.637083 C216.660449,160.425061 187.850195,164.902809 161.365039,170.9005 C159.733572,164.369978 158.267058,157.799396 156.966895,151.195013 L156.966895,151.197843 Z M432.996484,219.317917 C426.740746,208.518195 420.252945,197.854417 413.537598,187.334004 C433.956543,189.9097 453.517383,193.334526 471.885938,197.5264 C466.371973,215.191143 459.498633,233.662561 451.404688,252.59817 C445.490888,241.383392 439.353597,230.287763 432.996484,219.317917 L432.996484,219.317917 Z M320.431738,109.740465 C333.039941,123.391652 345.667969,138.636374 358.089258,155.174604 C332.892706,153.984633 307.654115,153.978966 282.457031,155.157622 C294.889648,138.772235 307.625293,123.550157 320.431738,109.740465 L320.431738,109.740465 Z M207.144824,219.504726 C200.867304,230.387329 194.844766,241.414875 189.082129,252.578357 C181.121289,233.707848 174.310254,215.154348 168.748145,197.237696 C187.00625,193.153378 206.476465,189.816296 226.762305,187.283057 C219.971698,197.868669 213.430735,208.612187 207.144824,219.504726 L207.144824,219.504726 Z M227.345703,382.772696 C206.388672,380.434757 186.623926,377.2675 168.371484,373.2964 C174.021387,355.062739 180.98252,336.110148 189.113281,316.834887 C194.900212,328.006643 200.949215,339.040842 207.255273,349.92833 C213.689964,361.034469 220.388677,371.985702 227.345703,382.772696 L227.345703,382.772696 Z M321.187891,460.295474 C308.231348,446.321617 295.308789,430.867443 282.686426,414.2443 C294.937793,414.725474 307.429883,414.968891 320.125879,414.968891 C333.170215,414.968891 346.064453,414.677357 358.754785,414.11127 C346.293848,431.03727 333.711133,446.514087 321.187891,460.295474 Z M451.665234,315.852726 C460.217969,335.337439 467.42832,354.188135 473.154688,372.113278 C454.599219,376.344778 434.568262,379.752622 413.461133,382.28303 C420.225019,371.566195 426.774915,360.715935 433.106934,349.738691 C439.543816,338.582379 445.731449,327.284259 451.665234,315.852726 L451.665234,315.852726 Z M409.425488,336.090335 C399.732012,352.919976 389.493528,369.430135 378.72627,385.594639 C359.740332,386.950417 340.12002,387.649535 320.125879,387.649535 C300.213867,387.649535 280.842773,387.02967 262.188184,385.821074 C251.141665,369.694206 240.7095,353.155473 230.914063,336.240348 C221.164411,319.414968 212.057588,302.225617 203.613281,284.709452 C212.03611,267.18804 221.115413,249.989481 230.831934,233.150252 L230.831934,233.155913 C240.545405,216.313098 250.895444,199.845081 261.859668,183.78747 C280.890918,182.349609 300.403613,181.596713 320.128711,181.596713 C339.941602,181.596713 359.479785,182.35527 378.505371,183.804452 C389.358694,199.837354 399.642535,216.248048 409.337695,233.0059 C419.087628,249.807665 428.288099,266.921976 436.924512,284.321683 C428.376938,301.898665 419.205728,319.165826 409.42832,336.090335 L409.425488,336.090335 Z M465.819727,30.9921087 C487.246875,43.3441261 495.581543,93.151287 482.118066,158.46923 C481.235607,162.7243 480.276336,166.963095 479.240723,171.183543 C452.693262,165.061313 423.863184,160.504313 393.679395,157.673878 C376.095313,132.650004 357.876855,109.896139 339.587598,90.2019739 C344.38014,85.5842552 349.286732,81.08625 354.302832,76.7121217 C401.546777,35.6198696 445.700977,19.3958174 465.819727,30.9921087 L465.819727,30.9921087 Z" id="Shape" fill="#FFFFFF"></path>
                <path d="M320.125879,226.943109 C351.686035,226.943109 377.267773,252.513257 377.267773,284.052791 C377.267773,315.595157 351.686035,341.165304 320.125879,341.165304 C288.568555,341.165304 262.983984,315.595157 262.983984,284.052791 C262.983984,252.513257 288.568555,226.943109 320.125879,226.943109" id="Shape" fill="#53C1DE"></path>
            </g>
        </g>
    </g>
</svg>